<?xml version="1.0" encoding="UTF-8"?>
<svg width="256px" height="256px" viewBox="0 0 256 256" version="1.1" xmlns="http://www.w3.org/2000/svg" xmlns:xlink="http://www.w3.org/1999/xlink">
    <!-- Generator: Sketch 52.5 (67469) - http://www.bohemiancoding.com/sketch -->
    <title>favicon</title>
    <desc>Created with Sketch.</desc>
    <g id="favicon" stroke="none" stroke-width="1" fill="none" fill-rule="evenodd">
        <rect fill="#061E29" x="0" y="0" width="256" height="256"></rect>
        <path d="M113.214286,112.946429 L86.8660714,112.946429 L86.8660714,63.5 L136.05002,63.5 C146.42918,63.5 156.97849,63.6696197 165.996449,69.4366886 C175.524858,75.7126165 180.799513,87.0771346 180.799513,98.4416527 C180.799513,111.671987 173.142756,123.884604 160.551644,128.464335 L187.5,193.5 L157.553571,193.5 L134.008218,133.892164 L133.991071,133.839286 L114.142857,133.839286 L86.8660714,133.839286 L73.1116071,133.839286 L57.5,114.803571 L86.8660714,114.803571 L113.214286,114.803571 L128.264539,114.768757 C133.908383,114.768757 140.065305,115.280331 145.025047,112.381416 C149.471713,109.653026 151.866071,104.196245 151.866071,99.0805138 C151.866071,94.4763553 149.129662,89.5311481 145.196073,87.1438067 C140.578382,84.2448921 132.711204,84.9269896 127.580436,84.9269896 L113.214286,84.9269896 L113.214286,112.946429 Z M114.142857,135.696429 L114.142857,179.919643 L86.8660714,179.919643 L86.8660714,135.696429 L114.142857,135.696429 Z" id="R" fill="#FFFFFF"></path>
    </g>
</svg>